<svg width="739" height="738" xmlns="http://www.w3.org/2000/svg" xmlns:xlink="http://www.w3.org/1999/xlink" xml:space="preserve" overflow="hidden"><g transform="translate(-270 0)"><g><g><g><g><path d="M412.05-64.575 369-107.625 478.163-216.788 216.788-478.163 107.625-369 64.575-412.05 107.625-456.638 64.575-499.688 129.15-564.263 86.1-608.85 129.15-651.9 173.738-608.85 238.312-673.425 281.363-630.375 325.95-673.425 369-630.375 259.837-521.213 521.213-259.837 630.375-369 673.425-325.95 630.375-281.363 673.425-238.312 608.85-173.738 651.9-129.15 608.85-86.1 564.263-129.15 499.688-64.575 456.638-107.625 412.05-64.575Z" stroke="#2F5597" stroke-width="6.83333" stroke-linecap="butt" stroke-linejoin="miter" stroke-miterlimit="4" stroke-opacity="1" fill="#4472C4" fill-rule="nonzero" fill-opacity="1" transform="matrix(-1 0 0 1 1009 738)"/></g></g></g></g></g></svg>